<?xml version="1.0" standalone="no"?>
<!DOCTYPE svg PUBLIC "-//W3C//DTD SVG 20010904//EN"
 "http://www.w3.org/TR/2001/REC-SVG-20010904/DTD/svg10.dtd">
<svg version="1.0" xmlns="http://www.w3.org/2000/svg"
 width="948.000000pt" height="948.000000pt" viewBox="0 0 948.000000 948.000000"
 preserveAspectRatio="xMidYMid meet">
<metadata>
Created by potrace 1.14, written by Peter Selinger 2001-2017
</metadata>
<g transform="translate(0.000000,948.000000) scale(0.100000,-0.100000)"
fill="#000000" stroke="none">
<path d="M6188 9345 c-2 -2 -28 -5 -59 -8 -31 -4 -79 -11 -105 -18 -27 -6 -53
-12 -59 -13 -146 -31 -378 -173 -494 -303 l-56 -64 -55 7 c-91 10 -340 12
-420 2 -187 -22 -331 -81 -421 -172 l-55 -56 -84 43 c-78 40 -212 88 -285 102
-16 3 -41 8 -55 11 -14 3 -80 6 -148 8 -192 5 -339 -28 -529 -120 -101 -48
-117 -60 -163 -116 -73 -93 -155 -262 -185 -388 -44 -182 -33 -390 29 -568 12
-34 13 -42 2 -42 -57 0 -231 -276 -329 -523 -42 -106 -100 -296 -110 -362 -3
-16 -10 -59 -16 -95 -36 -224 -32 -467 14 -694 67 -333 215 -646 436 -921 63
-79 236 -258 295 -306 30 -24 31 -29 38 -127 4 -56 9 -108 11 -115 4 -12 13
-64 18 -102 2 -21 -7 -27 -793 -500 -190 -114 -455 -274 -590 -355 -268 -160
-302 -186 -293 -219 12 -47 5 -48 573 129 107 34 202 63 210 65 8 2 58 17 110
33 161 51 296 92 302 92 3 0 -13 -20 -36 -45 -24 -25 -48 -45 -55 -45 -20 0
-245 -96 -346 -148 -838 -429 -1415 -1177 -1604 -2077 -16 -77 -32 -162 -35
-190 -4 -27 -9 -63 -12 -80 -17 -102 -27 -560 -14 -660 5 -33 11 -85 14 -115
3 -30 8 -66 10 -80 2 -14 10 -58 17 -98 7 -40 17 -76 23 -80 15 -9 7737 -10
7757 0 16 7 25 44 35 138 2 19 8 67 12 105 9 71 8 559 -1 605 -3 14 -8 52 -12
85 -4 32 -9 68 -11 80 -2 11 -6 36 -9 55 -3 19 -14 78 -25 130 -12 52 -23 103
-25 113 -15 71 -69 237 -113 347 -177 451 -473 834 -822 1063 -47 31 -94 62
-105 70 -11 8 -69 102 -130 208 -60 107 -114 202 -120 211 -5 9 -22 40 -38 68
l-27 50 67 -48 c668 -477 812 -579 826 -585 26 -10 60 28 51 56 -4 12 -9 24
-13 27 -3 3 -35 39 -71 80 -36 41 -81 92 -100 114 -48 54 -47 52 -125 141 -38
44 -84 96 -101 115 -17 19 -71 80 -119 135 -73 83 -177 201 -220 249 -5 6 -57
65 -115 131 -172 196 -400 454 -427 481 -17 17 -18 15 27 82 42 64 168 270
205 337 92 164 131 238 192 365 85 174 143 299 143 306 0 3 11 29 24 59 37 79
154 395 194 520 76 239 177 631 208 800 1 11 6 34 9 50 9 50 54 347 60 400 3
28 8 61 10 75 2 14 7 61 10 105 3 44 8 94 10 111 14 100 8 141 -25 201 -63
112 -217 293 -331 389 -79 66 -93 76 -209 154 -41 27 -164 90 -247 124 l-78
33 -16 99 c-47 283 -148 492 -329 673 -140 142 -210 179 -363 196 -63 7 -205
14 -209 10z m-3573 -6002 c-41 -62 -127 -140 -250 -228 -163 -115 -236 -194
-235 -252 1 -16 2 -16 13 -2 7 8 26 24 42 35 24 15 -206 -230 -253 -270 -18
-15 -29 -26 -132 -136 -59 -63 -92 -92 -99 -85 -5 6 -21 33 -36 60 l-26 50 7
-70 c4 -38 8 -85 9 -103 5 -81 188 -209 375 -262 41 -12 81 -23 88 -26 10 -3
9 -10 -3 -35 l-17 -31 -91 7 c-128 9 -222 30 -294 66 -59 28 -123 89 -123 116
0 6 -3 14 -7 16 -15 9 -13 -86 2 -145 20 -80 48 -130 100 -182 42 -43 43 -44
17 -41 -15 2 -40 8 -56 15 -16 6 -31 8 -33 6 -3 -3 16 -27 42 -55 55 -58 141
-105 227 -123 42 -9 57 -16 53 -26 -3 -7 -5 -18 -5 -23 0 -5 -6 -9 -14 -9 -9
0 -12 -7 -9 -19 3 -11 1 -27 -4 -36 -8 -14 -14 -11 -44 22 -126 140 -313 224
-514 232 l-60 2 55 -27 c123 -62 202 -184 266 -412 42 -149 66 -209 111 -278
29 -45 37 -84 19 -101 -8 -9 -98 93 -122 137 -13 25 -23 39 -24 33 -1 -27 53
-151 91 -209 38 -60 39 -62 29 -114 -6 -29 -12 -55 -14 -57 -2 -2 -15 1 -30 7
-64 24 -149 28 -216 10 -53 -15 -133 -58 -250 -136 -58 -39 -114 -73 -124 -77
-10 -4 -17 -9 -14 -12 2 -2 60 11 129 30 160 45 277 63 354 53 71 -9 135 -35
135 -55 0 -12 -10 -13 -51 -8 -57 8 -163 9 -194 1 -11 -2 -33 -7 -50 -11 -16
-4 -102 -29 -190 -56 -186 -56 -283 -80 -289 -71 -5 10 2 473 8 497 2 11 5 26
5 32 1 8 17 4 46 -12 51 -29 147 -56 208 -58 l42 -2 -60 -60 c-41 -40 -72 -83
-93 -129 -18 -38 -31 -70 -29 -73 2 -2 19 10 38 28 128 120 331 199 513 200
l68 0 -19 22 c-63 71 -97 181 -108 344 -13 208 -67 303 -192 338 -33 10 -42
10 -28 2 44 -27 84 -75 95 -115 6 -24 10 -95 9 -160 -1 -64 1 -127 5 -139 4
-13 3 -23 -2 -23 -10 0 -42 63 -75 150 -53 138 -88 180 -174 206 l-48 14 34
-27 c45 -35 61 -77 67 -176 5 -93 20 -169 41 -210 13 -26 9 -32 -19 -28 -3 0
-52 -15 -108 -35 -76 -26 -114 -34 -153 -32 -48 3 -52 5 -51 28 2 36 14 139
19 153 2 7 6 29 9 49 9 58 24 123 57 245 28 102 33 112 49 103 10 -6 27 -10
37 -10 13 1 11 5 -9 16 -16 8 -28 23 -28 33 0 37 54 176 135 348 l53 111 38
-8 c49 -11 52 -7 14 20 l-31 22 32 56 c74 132 250 374 348 479 28 30 45 41 58
37 15 -5 16 -4 3 5 -12 9 -1 24 65 91 44 44 83 80 86 80 4 0 14 -20 23 -45 10
-25 21 -45 24 -45 4 0 7 21 6 47 -1 71 12 105 50 135 l34 27 7 -47 c3 -26 13
-58 20 -72 l14 -25 -1 35 c-1 81 52 148 192 238 47 30 103 66 125 81 22 14 65
46 95 72 51 43 170 112 179 103 2 -2 -4 -16 -14 -31z m778 -362 c-20 -60 -69
-114 -135 -148 l-43 -22 30 -2 c17 -1 45 -1 63 0 38 2 37 3 13 -74 -10 -33
-24 -79 -30 -102 -11 -39 -15 -43 -44 -43 l-32 -1 28 -15 c15 -8 27 -16 27
-17 0 -1 -8 -28 -18 -59 -17 -55 -18 -56 -39 -40 -11 9 -28 30 -38 45 -10 15
-19 26 -21 24 -8 -7 27 -106 45 -128 17 -21 17 -26 4 -67 -9 -23 -17 -42 -18
-40 -14 13 -65 131 -70 161 -4 20 -12 40 -18 44 -5 3 -7 1 -4 -4 13 -20 -25
-114 -86 -213 -111 -180 -115 -234 -30 -438 38 -92 44 -146 23 -212 -1 -3 -12
24 -24 60 -13 36 -43 112 -67 170 -40 96 -44 112 -44 190 0 69 4 93 23 128 12
23 18 42 14 42 -21 0 -107 -111 -140 -180 -35 -72 -36 -80 -37 -185 0 -135 10
-168 112 -364 73 -138 75 -145 66 -185 -8 -34 -11 -38 -18 -21 -52 132 -139
276 -213 352 -117 120 -197 158 -357 169 -162 11 -187 13 -191 17 -8 7 8 37
20 38 101 8 286 -5 318 -22 30 -16 34 -2 7 20 -44 37 -133 79 -202 96 -37 10
-67 20 -67 24 0 4 7 16 15 28 l15 22 68 -23 c157 -54 264 -125 328 -220 30
-44 34 -47 28 -21 -30 135 -95 262 -169 328 -11 10 -33 31 -50 45 -16 15 -45
38 -62 50 -38 27 -39 29 -14 61 l18 24 49 -33 c81 -56 177 -159 210 -228 30
-62 31 -63 37 -33 8 36 44 116 71 156 24 34 103 114 194 196 63 57 118 150
109 187 -3 14 -6 12 -14 -8 -16 -37 -38 -54 -135 -100 -48 -23 -96 -51 -107
-61 -28 -26 -27 -7 3 57 32 68 59 99 130 145 l59 39 -56 0 c-106 0 -204 -48
-256 -126 l-29 -44 -16 40 c-18 45 -21 121 -6 136 11 11 21 74 11 72 -3 -1
-17 2 -29 6 -30 10 -49 -7 -145 -131 -68 -88 -74 -93 -102 -87 -111 22 -165
37 -165 43 0 4 78 45 173 91 94 46 239 117 321 157 101 49 156 71 171 67 38
-9 125 -11 125 -2 0 4 -5 8 -10 8 -6 0 -22 8 -36 17 l-26 17 53 27 54 28 18
-22 19 -22 -6 27 c-5 21 -1 30 13 38 27 14 28 13 36 -12 7 -22 8 -21 14 7 4
21 16 35 41 46 19 10 36 16 38 15 1 -2 -4 -16 -12 -32 -8 -16 -17 -42 -20 -58
-5 -28 -5 -28 30 12 19 23 57 51 86 64 29 13 70 33 93 45 22 11 41 20 42 19 1
-1 -5 -26 -14 -55z m3411 -240 l29 -19 -44 -13 c-37 -11 -40 -13 -19 -16 14
-2 39 -8 55 -13 17 -5 46 -12 65 -15 40 -7 81 -41 73 -61 -3 -9 3 -12 22 -11
32 2 39 -8 55 -83 6 -30 17 -71 23 -90 l11 -35 15 63 c9 35 21 63 26 64 6 0
38 -19 72 -43 51 -36 63 -50 68 -79 3 -19 8 -45 11 -57 2 -13 1 -23 -4 -23
-11 0 -62 74 -87 125 l-20 40 -7 -80 c-3 -44 -9 -89 -12 -100 -3 -11 -16 -64
-30 -119 -14 -54 -26 -111 -26 -127 0 -40 -15 -37 -18 4 -1 17 -16 86 -32 152
-37 151 -38 159 -39 220 l-1 50 -28 -50 c-15 -27 -38 -65 -52 -82 -24 -33 -43
-44 -35 -20 2 6 6 30 9 52 4 36 32 133 51 177 7 17 5 17 -27 3 -37 -15 -138
-31 -138 -22 0 7 52 59 93 92 23 19 26 25 12 21 -21 -5 -80 -9 -132 -7 -30 1
-32 3 -40 54 -5 28 -8 54 -7 58 7 14 81 8 108 -10z m-2349 -305 c4 -28 9 -54
11 -58 2 -3 -4 -14 -13 -24 -21 -20 -103 -74 -114 -74 -4 0 -3 15 2 34 5 19
10 59 11 88 1 48 5 57 42 94 l41 42 7 -26 c4 -13 10 -48 13 -76z m-2283 12
c28 -41 44 -56 91 -92 38 -29 38 -35 5 -79 -12 -16 -17 -15 -68 19 -59 40
-140 120 -140 140 0 10 60 42 82 43 4 1 17 -14 30 -31z m351 -25 c4 -38 3 -41
-14 -33 -29 16 -31 28 -12 54 10 13 19 23 19 23 1 -1 4 -21 7 -44z m-522 -30
c0 -10 3 -30 5 -45 6 -37 0 -35 -27 8 -18 30 -19 38 -8 45 21 13 29 11 30 -8z
m5965 -61 c92 -84 126 -162 174 -403 17 -83 42 -181 56 -218 53 -133 147 -246
268 -320 33 -21 56 -54 56 -81 0 -4 -15 6 -32 23 -38 35 -121 75 -195 93 -64
15 -203 11 -333 -10 -141 -22 -234 -17 -291 16 -25 15 -52 35 -60 44 -13 16
-12 16 16 2 154 -79 318 6 330 172 3 41 2 43 -11 25 -56 -78 -114 -109 -210
-109 -75 0 -115 12 -177 52 -45 30 -42 39 7 18 59 -24 170 -16 231 17 87 48
125 138 91 219 -25 60 -67 88 -225 152 -109 44 -173 88 -208 142 -7 11 -6 -1
3 -28 19 -59 75 -123 159 -183 69 -49 85 -69 85 -108 0 -73 -85 -94 -161 -39
-105 76 -182 258 -179 425 1 34 1 70 1 80 0 9 4 17 9 17 9 0 189 -127 200
-141 3 -3 55 -40 116 -81 61 -42 154 -108 206 -146 l96 -71 -3 -42 c-2 -28 0
-37 6 -28 5 8 9 22 9 31 0 9 12 30 26 47 23 28 25 35 15 63 -6 17 -11 55 -11
83 0 106 -56 231 -143 324 l-42 44 40 -22 c22 -12 58 -39 81 -59z m-1188 -12
c0 -22 -1 -22 -8 5 -4 17 -8 39 -8 50 0 16 2 15 8 -5 4 -14 8 -36 8 -50z
m-1034 -66 c-70 -72 -108 -127 -144 -207 -47 -107 -47 -130 0 -59 48 71 117
133 210 186 l64 38 22 -26 22 -25 -27 -68 c-15 -37 -42 -117 -60 -178 -39
-132 -76 -226 -108 -278 -28 -45 -76 -97 -89 -97 -5 0 -4 4 1 8 45 33 108 195
140 361 10 52 38 137 61 184 13 28 24 55 24 59 0 16 -91 -55 -137 -106 -58
-65 -94 -142 -142 -311 -69 -238 -146 -361 -263 -421 -27 -13 -48 -26 -48 -28
0 -5 78 0 147 9 73 9 215 65 285 112 165 109 273 300 303 538 4 28 10 54 14
58 7 7 94 -102 120 -152 6 -11 22 -32 36 -47 44 -47 175 -234 165 -234 -39 0
-139 81 -140 113 0 7 -4 5 -9 -3 -12 -20 1 -90 25 -131 22 -38 86 -86 124 -95
14 -3 41 -5 61 -5 21 1 41 -5 48 -13 11 -13 6 -17 -31 -27 -40 -10 -175 -7
-238 6 -69 15 -93 17 -185 20 -112 3 -179 -10 -262 -53 -52 -26 -126 -89 -144
-124 -12 -22 -11 -22 34 -3 20 8 46 15 57 15 19 0 18 -3 -10 -26 -42 -36 -84
-100 -105 -159 -20 -61 -30 -171 -15 -180 5 -3 10 1 10 9 0 23 57 83 105 111
52 31 171 62 267 70 85 7 212 22 248 30 14 3 34 7 45 9 74 15 170 61 215 104
22 21 22 23 5 18 -83 -22 -117 -25 -318 -26 -152 -1 -205 -5 -265 -21 -41 -10
-80 -22 -86 -26 -7 -5 -1 1 12 13 23 21 130 59 187 68 35 6 137 13 280 21 98
6 184 24 235 50 23 12 27 10 52 -26 l28 -39 -41 -40 c-79 -78 -182 -124 -418
-186 -172 -45 -274 -85 -346 -135 -71 -50 -90 -70 -121 -135 -25 -53 -44 -191
-24 -179 6 3 10 12 10 19 0 27 80 123 132 159 66 45 81 47 71 10 -5 -16 -8
-66 -8 -113 0 -71 5 -95 27 -142 15 -32 28 -58 30 -58 2 0 3 21 2 48 -2 60 19
141 52 198 36 61 43 62 37 3 -5 -51 13 -155 29 -165 4 -3 8 11 8 30 0 19 4 46
10 60 18 48 114 133 235 206 158 97 257 194 310 303 l37 78 34 -48 c19 -26 63
-91 98 -143 35 -52 78 -111 96 -130 17 -19 58 -72 91 -118 46 -63 66 -82 84
-82 28 0 35 -9 56 -75 14 -40 17 -44 18 -23 2 41 37 123 86 199 104 160 113
230 50 389 -20 52 -43 120 -51 150 -15 55 -17 178 -3 235 5 25 7 20 9 -25 1
-30 3 -62 5 -71 7 -37 37 -136 50 -164 95 -212 108 -311 54 -417 -11 -21 -17
-38 -14 -38 2 0 25 21 51 48 93 95 136 201 135 329 -2 110 -26 185 -121 368
-43 83 -90 184 -104 226 -24 72 -45 197 -40 242 1 12 3 35 3 51 2 47 10 25 26
-65 31 -176 108 -367 207 -517 54 -81 62 -101 103 -282 22 -94 46 -233 41
-237 -3 -4 -15 17 -27 45 -24 59 -34 64 -43 24 -19 -74 -73 -157 -155 -236
-155 -149 -171 -167 -190 -204 -10 -20 -21 -50 -25 -67 -8 -30 -8 -30 31 12
25 27 66 54 118 78 44 20 90 46 102 57 20 19 23 19 23 5 0 -60 -92 -177 -169
-217 -23 -11 -41 -22 -41 -25 0 -2 31 -2 69 0 107 5 191 50 245 130 l26 38 16
-39 c18 -43 20 -127 4 -169 -16 -42 -6 -40 32 5 l35 40 -2 -107 c-2 -60 -3
-109 -4 -111 0 -1 -15 13 -32 33 -18 20 -33 34 -35 32 -2 -2 2 -21 8 -43 15
-55 13 -112 -6 -159 l-17 -39 -18 29 c-53 86 -144 136 -255 141 -58 2 -67 0
-52 -9 86 -55 112 -76 137 -110 16 -22 29 -43 29 -47 0 -14 -126 -3 -158 14
-18 9 -46 36 -63 59 l-30 41 6 -31 c3 -18 10 -44 15 -58 6 -15 10 -28 10 -29
0 -2 -12 -3 -27 -2 -23 1 -29 8 -39 41 l-12 40 -7 -33 c-8 -36 -19 -46 -52
-48 -13 0 -23 0 -23 0 0 1 7 19 15 41 8 22 14 49 14 60 l0 20 -11 -20 c-18
-33 -51 -66 -83 -82 -29 -16 -155 -26 -155 -13 0 20 66 90 114 120 30 19 55
39 56 44 0 14 -130 -3 -175 -23 -49 -22 -111 -75 -136 -115 l-18 -30 -13 30
c-18 41 -16 177 2 200 14 16 13 16 -7 5 -23 -12 -74 -80 -87 -116 -4 -11 -10
-40 -13 -65 -6 -48 -16 -61 -42 -54 -9 2 -61 15 -116 29 -161 40 -173 44 -205
72 -17 14 -33 24 -35 22 -4 -5 24 -64 48 -99 l17 -26 -62 1 c-59 1 -62 2 -74
30 -7 17 -13 46 -14 64 0 47 -15 29 -32 -38 -13 -54 -30 -69 -57 -52 -19 12
-39 91 -36 144 1 26 -1 47 -5 47 -13 0 -51 -100 -57 -149 l-5 -47 -81 1 -82 1
-15 37 c-19 47 -32 47 -28 0 l3 -38 -226 0 c-197 0 -226 2 -221 15 5 13 3 13
-12 1 -17 -15 -174 -24 -159 -10 5 4 40 28 78 54 39 26 59 44 46 40 -13 -4
-29 -8 -35 -10 -6 -1 -18 -5 -26 -8 -57 -24 -231 -59 -317 -64 -90 -5 -109 -3
-167 17 -36 13 -82 38 -103 56 l-38 33 72 -25 c55 -19 93 -25 155 -25 111 1
144 7 332 67 130 42 321 90 391 100 28 3 52 7 55 9 3 2 34 6 70 10 36 4 74 9
85 10 11 1 35 3 54 4 54 2 33 8 -49 16 -148 13 -335 48 -473 89 -155 46 -250
76 -254 80 -2 2 2 15 8 30 15 33 31 33 139 0 47 -14 94 -28 105 -31 18 -4 19
-3 3 9 -9 7 -58 39 -107 71 l-91 58 21 40 20 40 47 -27 c26 -15 71 -48 101
-73 48 -41 53 -43 46 -21 -13 46 -73 145 -110 182 -20 21 -35 43 -33 50 3 7
35 18 72 24 65 13 152 47 189 76 16 12 10 14 -53 11 -64 -2 -109 8 -133 27 -4
4 11 43 33 88 22 45 40 84 40 86 0 2 31 68 69 147 67 137 72 145 116 168 85
45 128 139 139 301 6 90 2 79 110 304 47 98 86 181 86 185 0 4 17 17 37 28
l38 22 18 -29 18 -28 -57 -58z m-3881 59 c3 -16 4 -29 3 -30 -1 -1 -16 5 -34
14 -30 14 -31 17 -15 29 27 20 40 17 46 -13z m2628 -95 c0 -13 2 -32 5 -43 2
-11 6 -39 10 -62 5 -41 4 -42 -33 -61 -58 -30 -141 -46 -278 -57 -82 -6 -98
-8 -199 -26 -72 -13 -195 -56 -218 -77 -10 -8 -18 -11 -18 -6 0 17 112 109
149 122 20 7 74 22 121 33 193 45 358 114 420 175 31 30 40 30 41 2z m2464
-152 c-2 -94 -32 -232 -62 -290 l-17 -31 -8 44 c-4 24 -3 51 2 60 12 24 61
219 65 261 2 19 4 46 5 60 1 22 2 23 9 6 4 -11 7 -60 6 -110z m-3836 66 c12
-35 10 -49 -17 -143 l-29 -104 -12 40 c-6 22 -11 55 -11 74 0 37 40 171 50
171 4 0 12 -17 19 -38z m-1184 -257 c100 -15 106 -18 87 -37 -9 -9 -27 -8 -79
6 -56 15 -153 60 -153 71 0 2 21 -5 48 -15 26 -10 70 -21 97 -25z m2475 40 c0
-12 -92 -56 -145 -69 -80 -20 -116 -25 -232 -31 -238 -13 -272 -19 -348 -57
-179 -90 -348 -349 -421 -643 -4 -16 -8 -32 -9 -35 -1 -3 -5 -32 -9 -65 -11
-81 -14 -97 -21 -103 -3 -3 -5 6 -6 19 0 13 -1 44 -3 69 -6 124 26 244 113
418 49 100 66 123 136 190 242 231 288 274 266 249 -25 -28 -23 -34 8 -17 29
15 123 22 326 25 219 3 219 3 343 54 1 1 2 -1 2 -4z m137 -55 c2 -25 -2 -30
-20 -31 -12 0 -30 -2 -40 -4 -12 -2 -5 9 20 30 21 19 38 34 38 35 0 0 1 -14 2
-30z m11 -96 c-2 -15 -12 -32 -23 -38 -108 -60 -197 -142 -255 -232 -49 -78
-98 -225 -114 -344 -30 -225 -116 -377 -253 -449 -34 -17 -38 -13 -10 9 33 26
108 141 131 200 27 68 32 183 12 271 -22 99 -32 111 -34 41 -2 -58 -3 -64 -17
-116 -19 -69 -65 -128 -211 -271 -105 -103 -161 -166 -178 -200 -30 -58 -33
-40 -10 55 21 91 76 184 156 262 38 38 67 68 63 68 -3 0 -34 -13 -70 -29 -136
-62 -225 -144 -285 -264 l-39 -77 -11 37 c-20 68 -23 231 -7 310 38 176 154
323 256 323 29 0 71 -39 71 -65 0 -42 -20 -69 -100 -130 -77 -59 -129 -122
-150 -180 l-11 -30 33 37 c41 45 86 72 213 127 139 60 173 84 197 138 71 162
-125 307 -322 239 l-45 -16 30 25 c74 62 210 83 292 46 40 -18 103 -75 103
-92 0 -5 5 -9 10 -9 31 0 -11 132 -55 175 -62 59 -171 78 -242 41 -50 -26 -59
-19 -18 14 21 16 56 35 79 41 50 14 153 14 232 0 243 -43 382 -28 506 55 29
20 55 40 56 45 8 20 23 7 20 -17z m3830 -59 c-3 -3 -9 2 -12 12 -6 14 -5 15 5
6 7 -7 10 -15 7 -18z m-5923 -27 c36 -13 105 -58 105 -68 0 -4 -17 1 -37 11
-73 36 -164 30 -230 -14 -42 -28 -82 -101 -86 -158 l-4 -45 52 52 c33 33 66
56 91 63 90 25 200 4 264 -50 l35 -30 -40 16 c-56 23 -162 22 -217 -3 -77 -34
-127 -105 -123 -178 4 -83 54 -128 218 -198 124 -52 190 -95 219 -139 17 -28
19 -29 13 -7 -22 78 -67 135 -167 208 -93 68 -110 111 -63 157 92 93 274 -98
311 -326 7 -43 7 -179 1 -209 -2 -8 -7 -33 -12 -55 -12 -61 -17 -62 -36 -12
-48 123 -141 218 -276 284 -52 25 -96 44 -98 41 -3 -2 21 -26 51 -53 97 -83
169 -214 181 -330 l5 -50 -26 52 c-16 30 -60 83 -108 130 -201 193 -226 220
-258 289 -25 51 -35 89 -40 149 -4 44 -8 76 -9 70 -2 -5 -4 -17 -6 -25 -29
-106 -33 -142 -30 -210 7 -118 53 -223 136 -307 54 -56 37 -55 -40 2 -109 81
-165 184 -196 365 -17 100 -39 193 -62 260 -22 66 -23 80 -13 115 12 38 13 38
27 20 44 -57 111 -244 96 -268 -3 -6 -1 -7 6 -3 6 4 11 13 9 19 -9 55 47 248
96 330 19 31 32 57 29 57 -16 0 -96 -76 -115 -110 l-22 -38 -46 41 -46 41 19
47 20 46 61 7 c34 3 76 8 94 12 125 21 211 22 267 2z m2895 -83 c-6 -15 -13
-25 -16 -23 -2 3 1 17 7 32 16 34 23 27 9 -9z m1628 -42 c9 -129 -9 -263 -34
-263 -4 0 -5 2 -2 5 3 4 2 24 -3 46 -6 27 -6 54 3 82 15 53 15 54 16 105 2 40
17 60 20 25z m-5203 -159 c34 -71 35 -76 23 -122 l-12 -47 -17 69 c-25 97 -46
152 -86 216 l-34 55 46 -48 c25 -27 61 -82 80 -123z m2716 101 c-17 -26 -40
-76 -51 -110 -22 -67 -22 -67 -45 -168 -20 -90 -61 -214 -85 -255 l-19 -32 32
16 c17 10 59 44 93 78 71 71 121 167 156 299 12 48 26 87 29 87 6 0 11 -31 25
-135 1 -11 5 -33 7 -50 19 -120 19 -124 -3 -190 -12 -36 -37 -86 -56 -110
l-33 -44 70 0 c39 0 72 -1 74 -3 1 -2 5 -17 8 -34 l6 -31 -50 -2 c-28 0 -68
-5 -89 -11 -64 -17 -107 -39 -210 -106 -97 -63 -259 -133 -348 -149 -106 -19
-191 -25 -198 -13 -3 4 3 8 14 8 36 0 178 42 268 79 161 66 331 196 413 314
37 54 86 157 95 202 6 24 -1 18 -33 -30 -42 -65 -72 -94 -149 -150 -47 -33
-148 -83 -201 -100 l-24 -7 22 31 c37 52 77 150 121 296 50 166 73 225 114
285 62 92 102 122 47 35z m3144 -156 c74 -40 117 -47 398 -64 152 -10 262 -37
307 -78 14 -12 21 -19 15 -16 -15 9 -105 36 -142 43 -18 3 -120 6 -227 6 -124
1 -216 6 -253 15 -32 7 -59 12 -61 11 -6 -7 71 -59 121 -81 55 -26 146 -51
212 -59 22 -3 58 -8 80 -11 22 -3 72 -7 110 -10 186 -13 322 -73 368 -162 21
-40 28 -114 32 -336 l3 -187 -24 -1 c-13 -1 -28 -3 -34 -4 -5 -1 -29 -3 -52
-4 -58 -2 -44 -8 32 -15 36 -3 67 -5 69 -6 4 0 -7 -171 -15 -221 -4 -21 -9
-39 -13 -40 -3 0 -14 -2 -23 -4 -15 -3 -18 5 -19 48 -1 52 -1 52 -12 20 -23
-61 -36 -69 -118 -68 -58 0 -74 3 -75 15 -2 54 -48 190 -60 177 -3 -3 -7 -34
-8 -69 -4 -83 -22 -122 -58 -123 -22 -2 -28 3 -28 18 0 30 -22 97 -32 97 -5 0
-8 -6 -7 -12 9 -74 -13 -102 -85 -103 -31 0 -56 2 -56 5 0 3 9 20 21 39 11 19
25 45 30 58 10 26 1 25 -36 -7 -24 -21 -64 -34 -167 -55 -42 -9 -93 -22 -112
-30 l-36 -15 7 32 c4 18 7 144 8 280 0 137 4 248 8 248 5 0 16 -4 25 -9 9 -5
64 -19 122 -31 93 -20 158 -47 168 -72 2 -4 7 -8 12 -8 8 0 -8 55 -22 75 -36
52 -98 107 -208 185 -72 51 -131 99 -131 108 -3 40 -8 76 -14 91 -3 9 11 0 32
-20 39 -37 148 -119 158 -119 14 0 175 -113 207 -145 44 -44 70 -95 71 -141 1
-18 4 -31 8 -28 16 10 27 67 26 138 -1 42 1 76 4 76 4 0 23 -34 44 -75 34 -66
39 -84 39 -150 1 -82 10 -83 41 -5 30 79 36 145 20 218 -15 63 -8 66 56 21 75
-53 100 -82 130 -144 l29 -60 0 53 c0 175 -96 282 -330 367 -72 26 -84 29
-131 40 -160 35 -299 85 -382 138 -50 32 -54 38 -66 93 -22 100 -23 109 -14
99 4 -5 22 -17 38 -26z m859 -79 c17 -6 28 -21 35 -47 14 -51 14 -74 -1 -48
-6 11 -29 39 -51 63 -42 43 -37 53 17 32z m-1424 -3 c0 -1 9 -29 21 -62 29
-82 27 -151 -5 -214 -9 -16 -16 -40 -16 -52 0 -12 -3 -20 -6 -16 -15 15 -54
146 -54 182 0 43 38 165 52 165 4 0 8 -1 8 -3z m-5185 -187 c22 -67 51 -132
83 -183 l23 -39 -23 7 c-13 4 -52 21 -88 39 -48 23 -66 37 -68 54 -4 27 2 28
45 1 l35 -22 -27 52 c-24 45 -26 58 -20 107 8 64 15 61 40 -16z m1089 -60 c-3
-110 -4 -123 -9 -119 -2 3 -7 34 -10 69 -3 34 -10 81 -15 104 -7 33 -6 44 8
59 16 19 17 18 22 -19 3 -22 5 -64 4 -94z m124 48 c3 -35 26 -146 48 -223 19
-71 24 -103 25 -164 l1 -54 30 55 c16 31 43 71 58 89 l28 34 -4 -40 c-3 -22
-10 -62 -16 -90 -6 -27 -11 -52 -11 -55 1 -3 -8 -23 -19 -44 l-20 -39 24 7
c59 19 139 33 143 26 5 -8 -49 -67 -86 -92 -23 -16 -22 -16 51 -15 74 1 216
-9 229 -17 3 -2 28 -7 55 -10 27 -4 52 -9 55 -10 3 -2 31 -7 60 -10 30 -4 56
-8 58 -10 2 -2 -31 -9 -74 -16 -43 -7 -89 -14 -103 -17 -14 -2 -36 -6 -49 -8
-65 -11 -163 -19 -231 -18 -58 1 -71 -1 -59 -10 28 -21 74 -63 92 -84 18 -20
18 -20 -25 -16 -24 2 -60 11 -81 19 -51 19 -60 18 -47 -7 17 -30 40 -112 34
-118 -3 -3 -16 -6 -31 -7 -18 -1 -30 7 -44 30 l-19 31 0 -31 c0 -31 -6 -33
-62 -25 -3 1 0 25 8 54 7 28 14 71 14 94 l0 42 39 -14 40 -14 -15 41 c-17 48
-15 51 16 40 28 -10 200 21 187 34 -12 12 -116 32 -163 30 -45 -1 -53 2 -48
14 3 8 7 23 9 33 2 9 7 21 10 27 3 5 -12 3 -35 -5 l-40 -14 0 44 c0 25 0 47 0
50 -1 3 -7 23 -15 45 -15 43 -15 42 -15 67 0 35 -18 -4 -35 -75 -10 -41 -15
-89 -12 -108 5 -27 3 -33 -6 -26 -7 5 -27 14 -45 20 -25 9 -31 8 -25 -1 4 -7
9 -21 10 -31 2 -11 7 -24 12 -30 7 -8 -9 -11 -52 -11 -34 0 -75 -4 -92 -8 -47
-12 -59 -15 -70 -17 -26 -4 78 -32 142 -38 l71 -7 -12 -36 -13 -37 26 8 c14 4
33 11 41 14 12 5 15 -3 14 -40 -1 -25 5 -67 12 -92 18 -60 19 -58 -18 -58 -28
1 -34 5 -39 31 l-6 30 -7 -27 c-5 -16 -12 -29 -17 -29 -35 -5 -64 -1 -62 8 1
6 4 21 7 34 2 14 11 41 19 62 17 38 11 45 -24 27 -10 -6 -38 -13 -61 -16 -24
-3 -49 -7 -55 -9 -7 -3 -13 -1 -13 3 0 10 80 87 104 99 14 8 -4 10 -65 10 -88
-1 -186 8 -254 23 -22 5 -62 11 -90 15 -85 11 -133 22 -105 25 14 1 34 3 45 5
63 12 84 15 120 20 22 3 49 7 60 10 53 11 158 19 230 18 62 -2 76 0 60 9 -29
15 -105 90 -100 98 5 8 120 -12 131 -22 4 -5 13 -8 19 -8 8 0 4 24 -12 72 -13
39 -26 94 -29 122 -4 28 -8 54 -11 59 -2 4 -1 7 4 7 11 0 73 -92 93 -138 l17
-37 6 80 c3 44 16 116 28 160 11 44 22 85 23 90 8 31 18 84 21 110 6 48 10 49
13 3z m-1253 -294 c28 -31 184 -120 277 -158 61 -24 206 -64 241 -65 10 -1 16
-5 13 -10 -14 -21 -248 18 -334 56 -18 8 -45 20 -60 26 -15 7 -67 35 -115 62
-84 48 -87 51 -87 86 0 20 3 39 7 42 6 6 33 -12 58 -39z m2884 -145 c1 -14
-12 -16 -79 -17 -57 -1 -100 -8 -152 -26 l-73 -26 40 34 c47 40 116 67 194 75
58 6 69 0 70 -40z m-3078 -163 c2 -2 2 -32 1 -66 l-4 -61 -63 2 c-37 1 -104
15 -165 34 -88 28 -98 33 -74 39 16 3 65 17 109 30 70 22 183 34 196 22z
m3124 -34 c82 -27 87 -30 60 -37 -16 -4 -59 -16 -95 -28 -101 -34 -231 -30
-334 10 -70 26 -76 31 -53 37 14 3 39 11 54 18 114 46 224 46 368 0z m-2962
-13 l37 -13 -42 -18 c-56 -22 -68 -22 -68 1 0 30 11 53 24 48 6 -2 28 -10 49
-18z m-778 -105 c50 -14 95 -27 100 -29 6 -1 17 -5 25 -8 37 -14 190 -57 239
-68 29 -6 98 -9 152 -7 87 3 99 2 99 -13 0 -35 -129 -61 -230 -47 -111 16
-124 19 -244 53 -50 14 -100 28 -111 31 -11 3 13 -16 53 -41 39 -26 72 -50 72
-54 0 -12 -144 -5 -148 8 -2 6 -8 11 -13 11 -6 0 -7 -4 -4 -10 6 -10 -3 -12
-45 -12 -11 0 -24 0 -29 1 -10 1 -18 31 -26 96 -2 22 -7 57 -11 78 -7 46 -1
47 121 11z m1369 -43 c-3 -3 -12 -6 -22 -7 -60 -9 -98 -18 -182 -46 -52 -17
-122 -44 -155 -61 -43 -22 -76 -30 -117 -32 -32 -1 -58 0 -58 1 0 6 115 64
176 88 71 29 250 63 320 62 23 -1 40 -3 38 -5z m1534 -7 c29 -3 84 -14 122
-25 71 -19 240 -96 240 -108 0 -21 -95 -1 -195 41 -107 45 -191 72 -265 84
-19 3 -42 10 -50 14 -15 9 40 7 148 -6z m-1332 -96 c-3 -24 -5 -43 -5 -44 -4
-4 -31 1 -29 5 2 3 10 23 18 44 8 20 16 37 18 37 1 0 1 -19 -2 -42z m1002 -39
c-7 -20 -29 10 -34 47 l-6 39 22 -38 c11 -22 20 -43 18 -48z m-191 -1 c-3 -8
-6 -5 -6 6 -1 11 2 17 5 13 3 -3 4 -12 1 -19z m-637 8 c0 -3 -4 -8 -10 -11 -5
-3 -10 -1 -10 4 0 6 5 11 10 11 6 0 10 -2 10 -4z"/>
<path d="M8070 1860 c-1 -8 -3 -26 -5 -40 -13 -114 -63 -256 -118 -334 -23
-32 -13 -29 44 15 19 15 48 46 64 68 l28 41 38 -38 c36 -35 139 -95 148 -86 2
2 -8 13 -22 24 -34 27 -110 143 -132 203 -10 26 -24 73 -30 105 -7 31 -14 50
-15 42z"/>
<path d="M6062 1849 c1 -79 -67 -227 -146 -315 -28 -32 -46 -56 -41 -53 6 3
32 16 60 30 27 13 67 42 89 63 22 22 41 35 43 29 8 -24 57 -80 95 -110 46 -37
69 -44 39 -12 -48 51 -120 254 -121 339 0 14 -4 31 -9 39 -7 10 -9 8 -9 -10z"/>
<path d="M6601 1076 c-42 -87 -115 -159 -256 -258 -162 -113 -224 -175 -241
-243 l-7 -30 32 28 c33 27 72 41 213 72 43 9 94 27 113 41 20 13 37 24 38 24
1 0 2 -30 2 -68 0 -78 17 -121 71 -178 32 -34 36 -36 29 -14 -17 59 -17 132 0
176 l17 44 31 -42 c17 -24 38 -49 46 -56 38 -32 122 -62 184 -68 71 -6 88 5
38 26 -46 19 -120 96 -147 153 -33 71 -31 83 9 53 17 -13 66 -40 108 -59 50
-23 87 -48 108 -73 l32 -39 -6 30 c-19 84 -44 115 -230 282 -56 50 -119 153
-139 228 l-11 40 -34 -69z"/>
<path d="M3988 1588 c45 -68 73 -140 97 -260 2 -9 7 -38 11 -65 l7 -48 14 70
c19 95 74 205 133 268 27 28 47 53 45 55 -8 8 -108 -51 -145 -86 l-40 -39 -21
33 c-21 35 -105 114 -121 114 -5 0 4 -19 20 -42z"/>
</g>
</svg>
